<?xml version="1.0" standalone="no"?>
<!DOCTYPE svg PUBLIC "-//W3C//DTD SVG 20010904//EN"
 "http://www.w3.org/TR/2001/REC-SVG-20010904/DTD/svg10.dtd">
<svg version="1.0" xmlns="http://www.w3.org/2000/svg"
 width="512.000000pt" height="512.000000pt" viewBox="0 0 512.000000 512.000000"
 preserveAspectRatio="xMidYMid meet">
<metadata>
Created by potrace 1.11, written by Peter Selinger 2001-2013
</metadata>
<g transform="translate(0.000000,512.000000) scale(0.100000,-0.100000)"
fill="#000000" stroke="none">
<path d="M2380 4904 c-19 -2 -77 -9 -129 -15 -107 -12 -280 -53 -426 -100
-653 -209 -1200 -728 -1450 -1374 -190 -492 -213 -1004 -66 -1506 77 -261 158
-436 306 -659 361 -544 954 -917 1615 -1017 161 -24 501 -24 665 1 633 95
1204 442 1572 954 218 304 363 658 418 1022 9 58 19 186 22 285 16 519 -134
1010 -440 1437 -282 393 -716 711 -1167 856 -136 43 -286 80 -398 98 -93 14
-448 27 -522 18z m363 -225 c67 -6 126 -15 131 -19 5 -5 -1 -60 -14 -127 l-23
-119 -51 7 c-28 5 -153 7 -278 6 l-227 -3 -10 51 c-20 98 -33 186 -29 190 2 3
49 8 104 11 54 4 101 8 103 10 9 8 177 4 294 -7z m402 -73 c152 -44 442 -166
432 -183 -22 -40 -121 -209 -124 -212 -2 -3 -20 5 -41 16 -102 57 -399 163
-456 163 -20 0 -20 22 -1 136 23 132 17 123 78 109 28 -7 79 -20 112 -29z
m-981 -73 c10 -60 20 -114 22 -120 2 -7 -14 -17 -39 -23 -158 -41 -345 -110
-439 -163 -21 -11 -39 -19 -41 -16 -2 2 -23 38 -47 79 -23 41 -51 89 -62 107
l-19 32 63 32 c156 79 433 174 518 178 25 1 26 -2 44 -106z m-672 -210 c76
-125 93 -164 78 -173 -64 -36 -211 -152 -304 -241 l-112 -107 -59 52 c-33 28
-75 65 -95 83 l-35 32 85 86 c100 102 192 179 314 263 49 34 90 62 91 62 1 0
18 -26 37 -57z m2246 10 c118 -74 413 -336 411 -366 0 -7 -42 -46 -92 -88
l-92 -77 -111 107 c-91 88 -238 204 -304 241 -15 9 2 48 78 173 34 56 36 57
59 42 12 -8 35 -23 51 -32z m-1218 -123 c0 -134 0 -135 -40 -132 -3 0 -33 -3
-67 -7 -53 -6 -64 -5 -68 8 -11 34 -44 235 -40 240 5 5 117 17 178 20 l37 1 0
-130z m230 120 c74 0 74 0 49 -144 -18 -105 -25 -126 -38 -122 -9 3 -49 8 -88
12 l-73 7 0 130 0 130 53 -7 c28 -3 72 -6 97 -6z m-525 -137 c26 -157 30 -143
-45 -164 -36 -11 -72 -19 -80 -19 -10 0 -28 36 -54 108 -21 59 -41 112 -43
119 -4 11 36 26 137 52 67 18 65 20 85 -96z m833 75 c39 -12 62 -24 59 -31 -2
-7 -22 -60 -43 -119 -26 -73 -44 -108 -54 -108 -8 1 -44 9 -80 19 -75 21 -71
8 -45 164 l18 108 41 -7 c23 -3 69 -15 104 -26z m-1105 -163 c19 -55 38 -108
42 -117 5 -13 -9 -24 -71 -53 -60 -27 -80 -32 -86 -23 -20 31 -118 207 -118
213 0 10 184 94 191 87 3 -4 22 -52 42 -107z m1364 65 c67 -31 84 -43 79 -56
-13 -35 -117 -214 -124 -214 -4 1 -39 18 -79 38 l-72 37 35 95 c49 133 52 140
65 140 6 0 49 -18 96 -40z m-1622 -197 c33 -59 61 -112 62 -118 3 -12 -122
-98 -135 -93 -12 4 -162 181 -162 190 0 7 157 125 170 127 3 0 32 -48 65 -106z
m1913 24 c28 -22 52 -42 52 -46 0 -11 -153 -186 -165 -189 -7 -2 -25 8 -41 21
-16 13 -44 32 -62 43 -18 10 -31 23 -30 29 2 6 30 58 63 117 l60 106 35 -21
c19 -11 59 -39 88 -60z m-818 -33 c235 -40 483 -151 665 -297 133 -107 282
-290 363 -446 107 -205 151 -379 159 -626 5 -147 2 -186 -16 -288 -125 -677
-713 -1167 -1401 -1167 -382 0 -733 146 -1004 416 -209 209 -344 465 -396 751
-19 103 -21 140 -16 288 3 110 12 202 25 260 91 423 371 784 756 975 153 76
281 116 455 143 66 10 333 4 410 -9z m-1782 -158 c45 -38 82 -73 82 -77 0 -4
-25 -42 -55 -84 -64 -90 -140 -222 -183 -320 -18 -41 -36 -69 -44 -67 -7 1
-60 20 -118 41 -69 26 -104 44 -102 53 31 123 292 551 325 532 6 -4 49 -39 95
-78z m457 -11 c33 -38 65 -77 72 -86 11 -13 4 -24 -48 -77 l-62 -62 -41 38
c-23 20 -65 57 -94 81 -28 24 -52 49 -52 56 0 6 32 42 71 80 59 57 72 66 83
54 7 -8 39 -45 71 -84z m2353 22 l73 -74 -99 -86 -100 -86 -61 61 c-59 59 -60
61 -43 82 58 73 147 176 152 176 3 0 38 -33 78 -73z m522 -94 c61 -92 142
-244 184 -346 15 -37 15 -38 -7 -46 -81 -30 -194 -70 -205 -73 -8 -2 -24 24
-41 62 -40 92 -122 235 -186 325 -30 42 -55 80 -55 84 0 4 41 43 92 86 l92 77
29 -33 c15 -19 59 -80 97 -136z m-3061 -146 l91 -78 -47 -67 c-26 -37 -48 -68
-49 -70 -4 -7 -219 126 -219 136 0 21 106 163 119 160 8 -2 55 -38 105 -81z
m2718 31 c62 -85 76 -109 65 -120 -23 -23 -217 -128 -220 -118 -2 5 -24 37
-48 70 l-45 61 33 27 c18 15 59 50 93 79 33 29 65 52 71 52 7 1 29 -23 51 -51z
m-2778 -324 c3 -3 -55 -139 -64 -152 -4 -4 -228 79 -238 88 -7 6 61 165 78
182 5 5 205 -101 224 -118z m2952 29 c22 -47 37 -89 32 -94 -9 -9 -235 -91
-238 -87 -17 23 -67 152 -60 155 6 2 55 30 110 62 55 32 103 56 108 54 4 -3
26 -43 48 -90z m-3421 -138 c21 -8 34 -18 31 -26 -2 -8 -12 -45 -23 -84 -31
-110 -56 -251 -63 -360 l-7 -100 -123 3 -124 3 -3 27 c-2 15 0 56 4 92 4 36
10 88 13 115 10 97 72 363 91 397 3 3 41 -7 87 -24 45 -17 98 -36 117 -43z
m3830 70 c0 -3 16 -65 34 -139 33 -124 58 -285 70 -433 l5 -63 -130 0 -129 0
0 58 c0 77 -34 281 -66 398 -15 52 -25 97 -22 99 5 5 219 83 231 84 4 1 7 -1
7 -4z m-3567 -165 c60 -23 101 -44 101 -52 -2 -13 -36 -150 -40 -156 -2 -4
-247 39 -253 44 -2 2 8 51 24 109 24 93 30 105 47 99 10 -3 65 -23 121 -44z
m3256 -27 c11 -43 23 -92 27 -109 l6 -31 -114 -17 c-62 -10 -119 -18 -127 -19
-15 -2 -65 153 -53 164 7 7 221 87 233 88 4 1 16 -34 28 -76z m-3324 -258 c55
-10 103 -19 106 -21 6 -4 3 -67 -7 -131 l-5 -33 -127 0 -127 0 3 63 c1 34 4
73 6 87 3 14 5 33 5 44 1 14 6 17 24 13 12 -3 67 -13 122 -22z m3375 23 c6
-85 12 -150 15 -175 l4 -33 -129 0 c-148 0 -135 -10 -143 106 l-5 62 42 6 c22
3 75 12 116 20 78 15 100 18 100 14z m-3625 -365 c3 -38 8 -88 11 -113 8 -80
34 -208 60 -296 13 -48 23 -88 22 -89 -7 -7 -222 -85 -232 -85 -27 0 -90 268
-111 470 -22 203 -37 180 114 180 l129 0 7 -67z m359 -19 c3 -48 5 -89 3 -91
-6 -6 -136 -31 -199 -38 -67 -8 -64 -13 -73 123 l-7 92 135 0 134 0 7 -86z
m3280 -16 c-3 -57 -10 -107 -14 -112 -9 -9 -104 3 -213 26 l-49 10 7 47 c3 25
6 65 7 89 l0 42 135 0 134 0 -7 -102z m356 78 c0 -48 -21 -233 -36 -316 -21
-120 -75 -310 -88 -310 -6 0 -62 19 -124 42 -88 32 -112 45 -109 57 52 166 84
328 92 461 2 47 4 86 5 88 0 1 59 2 130 2 l130 0 0 -24z m-3591 -324 c12 -43
21 -83 21 -89 0 -6 -30 -21 -67 -34 -38 -12 -72 -25 -78 -29 -16 -10 -96 -32
-102 -27 -7 7 -53 179 -53 198 0 12 25 20 113 36 61 12 119 21 128 22 13 1 22
-19 38 -77z m3105 51 l98 -16 -6 -35 c-3 -19 -15 -68 -27 -109 l-22 -74 -31 7
c-17 3 -49 14 -71 24 -22 10 -64 25 -92 35 -29 9 -53 21 -53 27 0 6 10 46 22
90 l22 80 30 -6 c17 -4 75 -14 130 -23z m-3010 -311 l35 -72 -22 -14 c-47 -30
-200 -116 -207 -116 -12 0 -92 182 -83 190 11 10 226 90 235 87 4 -1 23 -35
42 -75z m2889 37 c61 -23 116 -45 120 -49 9 -8 -71 -190 -83 -190 -7 0 -160
86 -207 116 l-23 14 37 75 c21 41 39 75 40 75 2 0 54 -18 116 -41z m-3209
-191 c29 -62 93 -171 140 -242 l87 -128 -28 -25 c-15 -13 -58 -49 -96 -80 -67
-55 -68 -55 -88 -37 -63 57 -289 446 -301 517 -2 15 19 27 112 62 63 24 116
44 117 44 1 1 27 -50 57 -111z m3626 37 c26 -9 34 -17 32 -31 -14 -85 -284
-534 -321 -534 -5 0 -145 113 -184 150 -5 4 29 63 75 131 47 68 110 177 141
241 l57 116 83 -30 c45 -17 98 -36 117 -43z m-3175 -105 c42 -61 47 -72 34
-84 -8 -8 -52 -47 -99 -86 l-85 -71 -28 33 c-46 54 -99 139 -92 146 8 9 208
130 216 131 3 1 28 -31 54 -69z m2622 13 c137 -78 132 -71 90 -134 -19 -30
-48 -69 -63 -87 l-29 -32 -90 76 c-49 42 -94 80 -99 84 -7 7 79 150 90 150 2
0 47 -25 101 -57z m-2455 -210 c32 -32 58 -61 58 -65 0 -9 -145 -184 -161
-193 -13 -8 -150 125 -147 142 3 12 175 170 188 172 2 1 30 -25 62 -56z m2293
-25 c52 -44 95 -86 95 -93 0 -18 -138 -147 -149 -140 -15 9 -161 183 -161 192
0 7 111 123 117 123 2 0 46 -37 98 -82z m-2078 -155 l62 -44 -66 -114 -67
-114 -35 21 c-51 31 -141 99 -141 107 0 17 164 200 174 194 6 -4 39 -27 73
-50z m1882 -53 c39 -46 71 -87 71 -91 0 -8 -89 -75 -141 -107 l-37 -22 -65
115 -65 115 71 50 c57 40 74 48 83 38 7 -7 44 -51 83 -98z m-2349 -16 c85 -87
197 -179 284 -236 33 -21 62 -40 64 -43 4 -3 -81 -158 -117 -213 -10 -17 -48
5 -189 110 -102 75 -314 276 -309 291 3 10 178 165 187 166 3 1 39 -33 80 -75z
m2816 -1 c51 -43 93 -83 93 -89 1 -8 -132 -146 -192 -199 -76 -68 -294 -223
-301 -213 -1 1 -31 52 -66 112 -49 85 -59 111 -49 117 97 56 250 179 349 281
36 38 67 68 69 68 2 0 45 -35 97 -77z m-2129 -55 c40 -18 73 -36 73 -40 0 -4
-18 -59 -41 -122 -28 -78 -46 -116 -56 -116 -8 0 -53 18 -100 40 -70 33 -84
43 -79 57 13 34 117 213 124 213 4 0 40 -15 79 -32z m1407 -65 c80 -142 82
-127 -18 -173 -48 -22 -92 -40 -100 -40 -11 0 -96 208 -96 237 0 9 124 70 147
72 6 1 37 -43 67 -96z m-1145 -28 c30 -8 56 -17 59 -19 2 -3 -3 -49 -12 -103
-30 -172 -22 -155 -69 -148 -49 9 -167 44 -167 50 0 3 16 49 36 102 20 54 41
109 46 122 6 18 13 22 31 17 12 -4 46 -13 76 -21z m881 -80 c21 -56 40 -110
44 -122 6 -20 1 -24 -60 -43 -37 -11 -84 -23 -104 -26 -36 -6 -38 -4 -43 22
-28 147 -40 225 -35 229 9 9 131 43 147 41 8 0 30 -43 51 -101z m-572 35 c22
0 23 0 20 -132 l-3 -133 -75 2 c-41 2 -90 5 -108 8 -38 7 -38 -11 -5 174 l17
93 66 -6 c36 -3 75 -6 88 -6z m295 -72 c9 -46 19 -104 23 -130 7 -56 7 -56
-126 -60 l-85 -3 0 130 0 130 40 5 c22 3 61 7 86 8 l46 3 16 -83z m-873 -171
c52 -19 135 -46 183 -58 l88 -22 -6 -41 c-3 -23 -13 -79 -22 -125 l-16 -83
-44 6 c-138 19 -534 171 -549 211 -3 7 22 61 55 118 l62 105 77 -38 c42 -20
120 -53 172 -73z m1579 29 c27 -46 57 -98 65 -115 l16 -30 -107 -52 c-117 -56
-374 -144 -451 -155 l-48 -6 -18 98 c-9 55 -19 110 -22 124 -5 25 -1 27 113
58 128 36 257 85 343 131 30 16 56 30 57 30 1 1 25 -37 52 -83z m-979 -141
c80 -1 183 2 229 7 46 5 85 7 87 5 7 -6 44 -204 44 -231 0 -21 -5 -23 -102
-33 -143 -15 -517 -5 -537 13 -5 5 12 122 30 202 l11 54 47 -7 c25 -4 111 -8
191 -10z"/>
<path d="M2560 3596 c36 -7 85 -18 109 -25 l44 -12 -39 -41 c-22 -22 -50 -44
-64 -50 -24 -9 -22 -10 28 -27 61 -21 102 -55 102 -86 l0 -22 53 18 c40 14 68
17 118 13 54 -5 73 -3 98 12 17 10 33 24 35 31 6 16 5 16 -30 3 -36 -14 -77
-4 -115 27 -28 24 -31 25 -49 8 -16 -14 -28 -16 -67 -9 -35 6 -41 9 -23 11 14
3 58 13 98 24 84 23 112 20 191 -22 30 -16 57 -27 59 -24 3 2 -3 24 -12 48
l-16 44 -59 0 c-44 0 -73 7 -113 26 -101 51 -137 59 -278 63 -133 3 -134 3
-70 -10z"/>
<path d="M2588 3435 c-3 -4 -32 -17 -65 -31 l-58 -24 44 0 c57 0 171 20 171
30 0 4 -10 10 -22 13 -13 3 -32 8 -43 12 -11 3 -23 3 -27 0z"/>
<path d="M2445 3329 c-70 -14 -75 -25 -14 -32 28 -4 62 -13 76 -22 22 -15 28
-14 88 9 35 15 78 26 96 26 25 0 30 3 21 12 -15 15 -202 20 -267 7z"/>
<path d="M2427 3246 c-53 -19 -145 -93 -147 -117 0 -4 21 4 47 17 56 29 73 30
105 4 l25 -19 11 23 c6 13 24 39 41 59 26 29 28 36 15 41 -24 9 -55 7 -97 -8z"/>
<path d="M2565 3210 l-30 -8 36 -1 c71 -2 258 -45 247 -57 -2 -1 -37 5 -78 16
-41 10 -95 21 -120 24 -48 6 -45 4 43 -33 55 -23 64 -45 14 -36 -28 6 -35 3
-46 -18 -17 -31 -51 -47 -102 -47 -44 0 -45 -14 -2 -23 16 -3 44 -17 64 -30
l37 -25 6 29 c8 42 57 69 128 69 65 0 129 -24 200 -76 56 -42 60 -35 15 23
-35 46 -98 99 -129 109 -11 3 -17 8 -15 11 7 6 43 -13 85 -45 28 -20 46 -25
105 -26 79 -2 113 -16 174 -69 27 -24 34 -27 25 -11 -29 54 -127 123 -241 171
-95 40 -344 72 -416 53z"/>
<path d="M2359 3072 c-41 -27 -95 -72 -121 -100 -25 -29 -53 -52 -62 -52 -22
0 -38 35 -30 67 l6 28 -30 -32 c-61 -64 -155 -252 -196 -392 -20 -67 -14 -76
14 -21 62 122 126 214 195 280 l46 45 -17 -45 c-10 -27 -43 -73 -84 -115 -109
-113 -140 -173 -45 -87 57 52 133 94 195 107 22 5 47 21 68 45 38 46 93 69
188 79 67 7 68 8 39 20 -19 8 -59 11 -112 9 -68 -4 -92 -10 -150 -39 -37 -19
-72 -36 -78 -38 -27 -11 86 84 130 110 69 40 123 40 165 -1 35 -34 39 -35 66
-16 25 20 9 47 -37 62 -37 13 -58 48 -59 102 0 17 -4 32 -9 32 -5 0 -42 -22
-82 -48z"/>
<path d="M3000 3020 c11 -16 30 -49 41 -74 18 -43 24 -47 84 -65 174 -54 271
-175 231 -291 l-15 -45 24 28 c24 27 45 84 45 123 0 11 -7 43 -15 72 -29 98
-139 189 -265 222 -25 6 -65 23 -89 36 -57 32 -67 30 -41 -6z"/>
<path d="M2554 2978 c45 -64 -3 -127 -131 -176 -45 -18 -91 -32 -103 -32 -11
0 -20 -5 -20 -11 0 -8 24 -10 78 -7 61 4 94 12 160 42 94 43 108 42 166 -13
l39 -36 -6 30 c-3 17 -8 39 -11 50 -4 11 0 7 8 -10 8 -16 15 -44 16 -61 0 -18
9 -39 20 -49 52 -47 110 -191 110 -275 0 -26 3 -31 10 -20 16 25 11 144 -8
207 -11 32 -30 77 -43 100 -38 67 -111 156 -118 145 -4 -6 -24 16 -46 49 -21
32 -40 59 -42 59 -2 0 -1 -5 3 -11 4 -7 -11 0 -32 15 -49 33 -71 35 -50 4z"/>
<path d="M3050 2876 c0 -3 18 -33 40 -68 55 -84 74 -154 66 -235 -4 -35 -11
-75 -17 -89 -15 -40 -5 -38 22 4 18 28 32 38 55 40 27 3 33 -2 48 -31 9 -19
16 -50 16 -69 1 -29 2 -31 12 -14 6 11 9 50 6 95 -5 92 -34 160 -104 245 -43
51 -144 137 -144 122z"/>
<path d="M2229 2722 c32 -60 151 -122 236 -122 l28 0 -20 -22 c-19 -22 -53
-88 -53 -104 0 -5 19 11 43 33 41 41 116 82 148 83 9 0 33 -11 53 -25 28 -19
36 -21 36 -9 0 23 -55 74 -82 75 -179 4 -232 19 -251 69 -11 28 -15 30 -63 30
-29 0 -60 3 -69 7 -15 5 -16 3 -6 -15z"/>
<path d="M2690 2711 c0 -5 7 -12 15 -15 9 -3 23 -22 31 -41 12 -29 13 -47 3
-101 -6 -36 -9 -88 -7 -116 5 -44 12 -56 60 -106 70 -72 78 -87 79 -159 l1
-58 15 35 c29 65 22 117 -32 226 -47 94 -50 103 -51 184 0 47 -6 95 -13 108
-17 32 -101 67 -101 43z"/>
<path d="M2411 2414 c-26 -33 -35 -82 -26 -140 6 -42 5 -45 -12 -36 -38 21
-83 92 -83 132 0 11 -5 20 -11 20 -18 0 -5 -119 18 -171 53 -117 199 -197 317
-175 48 9 45 19 -7 33 -59 16 -130 88 -157 159 -22 59 -27 153 -10 185 16 28
-5 24 -29 -7z"/>
<path d="M3261 2355 c-59 -87 -154 -141 -206 -117 -33 15 -32 -1 3 -27 32 -25
25 -32 -55 -58 -31 -10 -53 -23 -53 -31 0 -8 -15 -29 -34 -48 -38 -38 -34 -40
47 -19 149 39 253 129 307 265 26 66 22 80 -9 35z"/>
<path d="M2768 2280 c17 -29 17 -30 -30 -122 -26 -51 -54 -122 -63 -158 -30
-117 -91 -211 -176 -267 -22 -14 -37 -28 -35 -31 9 -8 118 40 176 77 l55 35
-32 9 c-18 6 -33 14 -33 18 0 5 12 4 26 -1 43 -17 58 -12 103 33 l43 42 -35 6
c-37 6 -67 24 -67 40 0 5 9 0 20 -11 11 -11 28 -20 39 -20 42 0 90 62 107 139
6 26 6 26 -14 -3 -24 -34 -48 -50 -62 -41 -16 10 -11 78 10 140 11 32 20 69
20 82 0 26 -32 63 -55 63 -12 0 -11 -5 3 -30z"/>
<path d="M2520 1999 c-25 -14 -56 -19 -110 -20 l-75 -1 60 -15 c48 -12 72 -13
123 -4 76 14 138 41 120 53 -22 14 -82 7 -118 -13z"/>
<path d="M1780 1853 c0 -14 53 -80 82 -102 90 -70 198 -95 393 -88 83 2 161 9
175 15 18 8 20 11 8 11 -30 1 -20 15 30 41 49 26 132 101 132 121 0 6 -14 -1
-31 -16 -66 -55 -177 -95 -265 -95 -27 0 -37 -5 -46 -25 -13 -29 -32 -34 -23
-5 6 18 2 19 -47 13 -29 -3 -58 -12 -64 -19 -15 -18 -25 -18 -18 1 5 11 -1 13
-28 9 -46 -8 -121 13 -114 31 3 10 -11 19 -50 30 -33 9 -71 30 -94 52 -22 19
-40 31 -40 26z"/>
</g>
</svg>
